<svg width="13" height="15" viewBox="0 0 13 15" fill="none"
  xmlns="http://www.w3.org/2000/svg">
  <path fill-rule="evenodd" clip-rule="evenodd" d="M6.75245 0C4.68529 0 3.00952 1.67577 3.00952 3.74293C3.00952 4.93983 3.57132 6.00551 4.4456 6.69067C2.0965 7.37204 0.496461 9.72006 0.89417 12.2768C1.06725 13.3894 2.02535 14.21 3.15141 14.21H10.3971C11.5231 14.21 12.4812 13.3894 12.6543 12.2768C13.0538 9.70848 11.4375 7.35079 9.07093 6.68152C9.93857 5.99605 10.4954 4.93451 10.4954 3.74293C10.4954 1.67577 8.81962 0 6.75245 0ZM4.21952 3.74293C4.21952 2.34403 5.35355 1.21 6.75245 1.21C8.15135 1.21 9.28538 2.34403 9.28538 3.74293C9.28538 5.14183 8.15135 6.27586 6.75245 6.27586C5.35355 6.27586 4.21952 5.14183 4.21952 3.74293ZM2.08979 12.0908C1.7311 9.7849 3.51437 7.70278 5.84798 7.70278H7.70051C10.0341 7.70278 11.8174 9.7849 11.4587 12.0908C11.3773 12.6141 10.9267 13 10.3971 13H3.15141C2.6218 13 2.1712 12.6141 2.08979 12.0908Z" fill="#201E1C"/>
</svg>
